<svg xmlns="http://www.w3.org/2000/svg" width="1080" height="817"><rect x="10" y="20" width="50" height="500" fill = "cornflowerblue" style="stroke-width:2;stroke:rgb(0,0,0)"/><text x="40" y="15" transform="rotate(0 40 15)" style="text-anchor:end;" fill="black">3
</text><text x="36.5" y="535" transform="rotate(0 36.5 535)" style="text-anchor:end;" fill="black">e</text><text x="36.5" y="550" transform="rotate(0 36.5 550)" style="text-anchor:end;" fill="black">n</text><text x="36.5" y="565" transform="rotate(0 36.5 565)" style="text-anchor:end;" fill="black">d</text><rect x="65" y="270" width="50" height="250" fill = "cornflowerblue" style="stroke-width:2;stroke:rgb(0,0,0)"/><text x="95" y="265" transform="rotate(0 95 265)" style="text-anchor:end;" fill="black">2
</text><text x="91.5" y="535" transform="rotate(0 91.5 535)" style="text-anchor:end;" fill="black">f</text><text x="91.5" y="550" transform="rotate(0 91.5 550)" style="text-anchor:end;" fill="black">i</text><text x="91.5" y="565" transform="rotate(0 91.5 565)" style="text-anchor:end;" fill="black">l</text><text x="91.5" y="580" transform="rotate(0 91.5 580)" style="text-anchor:end;" fill="black">e</text><rect x="120" y="270" width="50" height="250" fill = "cornflowerblue" style="stroke-width:2;stroke:rgb(0,0,0)"/><text x="150" y="265" transform="rotate(0 150 265)" style="text-anchor:end;" fill="black">2
</text><text x="146.5" y="535" transform="rotate(0 146.5 535)" style="text-anchor:end;" fill="black">f</text><text x="146.5" y="550" transform="rotate(0 146.5 550)" style="text-anchor:end;" fill="black">i</text><text x="146.5" y="565" transform="rotate(0 146.5 565)" style="text-anchor:end;" fill="black">l</text><text x="146.5" y="580" transform="rotate(0 146.5 580)" style="text-anchor:end;" fill="black">e</text><text x="146.5" y="595" transform="rotate(0 146.5 595)" style="text-anchor:end;" fill="black">s</text><rect x="175" y="270" width="50" height="250" fill = "cornflowerblue" style="stroke-width:2;stroke:rgb(0,0,0)"/><text x="205" y="265" transform="rotate(0 205 265)" style="text-anchor:end;" fill="black">2
</text><text x="201.5" y="535" transform="rotate(0 201.5 535)" style="text-anchor:end;" fill="black">w</text><text x="201.5" y="550" transform="rotate(0 201.5 550)" style="text-anchor:end;" fill="black">h</text><text x="201.5" y="565" transform="rotate(0 201.5 565)" style="text-anchor:end;" fill="black">a</text><text x="201.5" y="580" transform="rotate(0 201.5 580)" style="text-anchor:end;" fill="black">t</text><text x="201.5" y="595" transform="rotate(0 201.5 595)" style="text-anchor:end;" fill="black">_</text><text x="201.5" y="610" transform="rotate(0 201.5 610)" style="text-anchor:end;" fill="black">i</text><text x="201.5" y="625" transform="rotate(0 201.5 625)" style="text-anchor:end;" fill="black">s</text><text x="201.5" y="640" transform="rotate(0 201.5 640)" style="text-anchor:end;" fill="black">_</text><text x="201.5" y="655" transform="rotate(0 201.5 655)" style="text-anchor:end;" fill="black">i</text><text x="201.5" y="670" transform="rotate(0 201.5 670)" style="text-anchor:end;" fill="black">n</text><text x="201.5" y="685" transform="rotate(0 201.5 685)" style="text-anchor:end;" fill="black">_</text><text x="201.5" y="700" transform="rotate(0 201.5 700)" style="text-anchor:end;" fill="black">t</text><text x="201.5" y="715" transform="rotate(0 201.5 715)" style="text-anchor:end;" fill="black">h</text><text x="201.5" y="730" transform="rotate(0 201.5 730)" style="text-anchor:end;" fill="black">e</text><text x="201.5" y="745" transform="rotate(0 201.5 745)" style="text-anchor:end;" fill="black">_</text><text x="201.5" y="760" transform="rotate(0 201.5 760)" style="text-anchor:end;" fill="black">f</text><text x="201.5" y="775" transform="rotate(0 201.5 775)" style="text-anchor:end;" fill="black">i</text><text x="201.5" y="790" transform="rotate(0 201.5 790)" style="text-anchor:end;" fill="black">l</text><text x="201.5" y="805" transform="rotate(0 201.5 805)" style="text-anchor:end;" fill="black">e</text><rect x="230" y="519" width="50" height="1" fill = "cornflowerblue" style="stroke-width:2;stroke:rgb(0,0,0)"/><text x="260" y="514" transform="rotate(0 260 514)" style="text-anchor:end;" fill="black">1
</text><text x="256.5" y="535" transform="rotate(0 256.5 535)" style="text-anchor:end;" fill="black">c</text><text x="256.5" y="550" transform="rotate(0 256.5 550)" style="text-anchor:end;" fill="black">l</text><text x="256.5" y="565" transform="rotate(0 256.5 565)" style="text-anchor:end;" fill="black">a</text><text x="256.5" y="580" transform="rotate(0 256.5 580)" style="text-anchor:end;" fill="black">s</text><text x="256.5" y="595" transform="rotate(0 256.5 595)" style="text-anchor:end;" fill="black">s</text><rect x="285" y="519" width="50" height="1" fill = "cornflowerblue" style="stroke-width:2;stroke:rgb(0,0,0)"/><text x="315" y="514" transform="rotate(0 315 514)" style="text-anchor:end;" fill="black">1
</text><text x="311.5" y="535" transform="rotate(0 311.5 535)" style="text-anchor:end;" fill="black">d</text><text x="311.5" y="550" transform="rotate(0 311.5 550)" style="text-anchor:end;" fill="black">e</text><text x="311.5" y="565" transform="rotate(0 311.5 565)" style="text-anchor:end;" fill="black">f</text><rect x="340" y="519" width="50" height="1" fill = "cornflowerblue" style="stroke-width:2;stroke:rgb(0,0,0)"/><text x="370" y="514" transform="rotate(0 370 514)" style="text-anchor:end;" fill="black">1
</text><text x="366.5" y="535" transform="rotate(0 366.5 535)" style="text-anchor:end;" fill="black">F</text><text x="366.5" y="550" transform="rotate(0 366.5 550)" style="text-anchor:end;" fill="black">i</text><text x="366.5" y="565" transform="rotate(0 366.5 565)" style="text-anchor:end;" fill="black">l</text><text x="366.5" y="580" transform="rotate(0 366.5 580)" style="text-anchor:end;" fill="black">e</text><rect x="395" y="519" width="50" height="1" fill = "cornflowerblue" style="stroke-width:2;stroke:rgb(0,0,0)"/><text x="425" y="514" transform="rotate(0 425 514)" style="text-anchor:end;" fill="black">1
</text><text x="421.5" y="535" transform="rotate(0 421.5 535)" style="text-anchor:end;" fill="black">F</text><text x="421.5" y="550" transform="rotate(0 421.5 550)" style="text-anchor:end;" fill="black">i</text><text x="421.5" y="565" transform="rotate(0 421.5 565)" style="text-anchor:end;" fill="black">l</text><text x="421.5" y="580" transform="rotate(0 421.5 580)" style="text-anchor:end;" fill="black">e</text><text x="421.5" y="595" transform="rotate(0 421.5 595)" style="text-anchor:end;" fill="black">P</text><text x="421.5" y="610" transform="rotate(0 421.5 610)" style="text-anchor:end;" fill="black">a</text><text x="421.5" y="625" transform="rotate(0 421.5 625)" style="text-anchor:end;" fill="black">r</text><text x="421.5" y="640" transform="rotate(0 421.5 640)" style="text-anchor:end;" fill="black">s</text><text x="421.5" y="655" transform="rotate(0 421.5 655)" style="text-anchor:end;" fill="black">e</text><text x="421.5" y="670" transform="rotate(0 421.5 670)" style="text-anchor:end;" fill="black">r</text><rect x="450" y="519" width="50" height="1" fill = "cornflowerblue" style="stroke-width:2;stroke:rgb(0,0,0)"/><text x="480" y="514" transform="rotate(0 480 514)" style="text-anchor:end;" fill="black">1
</text><text x="476.5" y="535" transform="rotate(0 476.5 535)" style="text-anchor:end;" fill="black">m</text><text x="476.5" y="550" transform="rotate(0 476.5 550)" style="text-anchor:end;" fill="black">o</text><text x="476.5" y="565" transform="rotate(0 476.5 565)" style="text-anchor:end;" fill="black">d</text><text x="476.5" y="580" transform="rotate(0 476.5 580)" style="text-anchor:end;" fill="black">u</text><text x="476.5" y="595" transform="rotate(0 476.5 595)" style="text-anchor:end;" fill="black">l</text><text x="476.5" y="610" transform="rotate(0 476.5 610)" style="text-anchor:end;" fill="black">e</text><rect x="505" y="519" width="50" height="1" fill = "cornflowerblue" style="stroke-width:2;stroke:rgb(0,0,0)"/><text x="535" y="514" transform="rotate(0 535 514)" style="text-anchor:end;" fill="black">1
</text><text x="531.5" y="535" transform="rotate(0 531.5 535)" style="text-anchor:end;" fill="black">n</text><text x="531.5" y="550" transform="rotate(0 531.5 550)" style="text-anchor:end;" fill="black">e</text><text x="531.5" y="565" transform="rotate(0 531.5 565)" style="text-anchor:end;" fill="black">w</text><rect x="560" y="519" width="50" height="1" fill = "cornflowerblue" style="stroke-width:2;stroke:rgb(0,0,0)"/><text x="590" y="514" transform="rotate(0 590 514)" style="text-anchor:end;" fill="black">1
</text><text x="586.5" y="535" transform="rotate(0 586.5 535)" style="text-anchor:end;" fill="black">o</text><text x="586.5" y="550" transform="rotate(0 586.5 550)" style="text-anchor:end;" fill="black">p</text><text x="586.5" y="565" transform="rotate(0 586.5 565)" style="text-anchor:end;" fill="black">e</text><text x="586.5" y="580" transform="rotate(0 586.5 580)" style="text-anchor:end;" fill="black">n</text><rect x="615" y="519" width="50" height="1" fill = "cornflowerblue" style="stroke-width:2;stroke:rgb(0,0,0)"/><text x="645" y="514" transform="rotate(0 645 514)" style="text-anchor:end;" fill="black">1
</text><text x="641.5" y="535" transform="rotate(0 641.5 535)" style="text-anchor:end;" fill="black">p</text><text x="641.5" y="550" transform="rotate(0 641.5 550)" style="text-anchor:end;" fill="black">a</text><text x="641.5" y="565" transform="rotate(0 641.5 565)" style="text-anchor:end;" fill="black">r</text><text x="641.5" y="580" transform="rotate(0 641.5 580)" style="text-anchor:end;" fill="black">s</text><text x="641.5" y="595" transform="rotate(0 641.5 595)" style="text-anchor:end;" fill="black">e</text><text x="641.5" y="610" transform="rotate(0 641.5 610)" style="text-anchor:end;" fill="black">_</text><text x="641.5" y="625" transform="rotate(0 641.5 625)" style="text-anchor:end;" fill="black">f</text><text x="641.5" y="640" transform="rotate(0 641.5 640)" style="text-anchor:end;" fill="black">i</text><text x="641.5" y="655" transform="rotate(0 641.5 655)" style="text-anchor:end;" fill="black">l</text><text x="641.5" y="670" transform="rotate(0 641.5 670)" style="text-anchor:end;" fill="black">e</text><rect x="670" y="519" width="50" height="1" fill = "cornflowerblue" style="stroke-width:2;stroke:rgb(0,0,0)"/><text x="700" y="514" transform="rotate(0 700 514)" style="text-anchor:end;" fill="black">1
</text><text x="696.5" y="535" transform="rotate(0 696.5 535)" style="text-anchor:end;" fill="black">p</text><text x="696.5" y="550" transform="rotate(0 696.5 550)" style="text-anchor:end;" fill="black">a</text><text x="696.5" y="565" transform="rotate(0 696.5 565)" style="text-anchor:end;" fill="black">r</text><text x="696.5" y="580" transform="rotate(0 696.5 580)" style="text-anchor:end;" fill="black">s</text><text x="696.5" y="595" transform="rotate(0 696.5 595)" style="text-anchor:end;" fill="black">e</text><text x="696.5" y="610" transform="rotate(0 696.5 610)" style="text-anchor:end;" fill="black">_</text><text x="696.5" y="625" transform="rotate(0 696.5 625)" style="text-anchor:end;" fill="black">s</text><text x="696.5" y="640" transform="rotate(0 696.5 640)" style="text-anchor:end;" fill="black">t</text><text x="696.5" y="655" transform="rotate(0 696.5 655)" style="text-anchor:end;" fill="black">r</text><text x="696.5" y="670" transform="rotate(0 696.5 670)" style="text-anchor:end;" fill="black">i</text><text x="696.5" y="685" transform="rotate(0 696.5 685)" style="text-anchor:end;" fill="black">n</text><text x="696.5" y="700" transform="rotate(0 696.5 700)" style="text-anchor:end;" fill="black">g</text><rect x="725" y="519" width="50" height="1" fill = "cornflowerblue" style="stroke-width:2;stroke:rgb(0,0,0)"/><text x="755" y="514" transform="rotate(0 755 514)" style="text-anchor:end;" fill="black">1
</text><text x="751.5" y="535" transform="rotate(0 751.5 535)" style="text-anchor:end;" fill="black">P</text><text x="751.5" y="550" transform="rotate(0 751.5 550)" style="text-anchor:end;" fill="black">a</text><text x="751.5" y="565" transform="rotate(0 751.5 565)" style="text-anchor:end;" fill="black">r</text><text x="751.5" y="580" transform="rotate(0 751.5 580)" style="text-anchor:end;" fill="black">s</text><text x="751.5" y="595" transform="rotate(0 751.5 595)" style="text-anchor:end;" fill="black">e</text><text x="751.5" y="610" transform="rotate(0 751.5 610)" style="text-anchor:end;" fill="black">r</text><rect x="780" y="519" width="50" height="1" fill = "cornflowerblue" style="stroke-width:2;stroke:rgb(0,0,0)"/><text x="810" y="514" transform="rotate(0 810 514)" style="text-anchor:end;" fill="black">1
</text><text x="806.5" y="535" transform="rotate(0 806.5 535)" style="text-anchor:end;" fill="black">r</text><text x="806.5" y="550" transform="rotate(0 806.5 550)" style="text-anchor:end;" fill="black">e</text><text x="806.5" y="565" transform="rotate(0 806.5 565)" style="text-anchor:end;" fill="black">a</text><text x="806.5" y="580" transform="rotate(0 806.5 580)" style="text-anchor:end;" fill="black">d</text><rect x="835" y="519" width="50" height="1" fill = "cornflowerblue" style="stroke-width:2;stroke:rgb(0,0,0)"/><text x="865" y="514" transform="rotate(0 865 514)" style="text-anchor:end;" fill="black">1
</text><text x="861.5" y="535" transform="rotate(0 861.5 535)" style="text-anchor:end;" fill="black">r</text><text x="861.5" y="550" transform="rotate(0 861.5 550)" style="text-anchor:end;" fill="black">e</text><text x="861.5" y="565" transform="rotate(0 861.5 565)" style="text-anchor:end;" fill="black">q</text><text x="861.5" y="580" transform="rotate(0 861.5 580)" style="text-anchor:end;" fill="black">u</text><text x="861.5" y="595" transform="rotate(0 861.5 595)" style="text-anchor:end;" fill="black">i</text><text x="861.5" y="610" transform="rotate(0 861.5 610)" style="text-anchor:end;" fill="black">r</text><text x="861.5" y="625" transform="rotate(0 861.5 625)" style="text-anchor:end;" fill="black">e</text><text x="861.5" y="640" transform="rotate(0 861.5 640)" style="text-anchor:end;" fill="black">_</text><text x="861.5" y="655" transform="rotate(0 861.5 655)" style="text-anchor:end;" fill="black">r</text><text x="861.5" y="670" transform="rotate(0 861.5 670)" style="text-anchor:end;" fill="black">e</text><text x="861.5" y="685" transform="rotate(0 861.5 685)" style="text-anchor:end;" fill="black">l</text><text x="861.5" y="700" transform="rotate(0 861.5 700)" style="text-anchor:end;" fill="black">a</text><text x="861.5" y="715" transform="rotate(0 861.5 715)" style="text-anchor:end;" fill="black">t</text><text x="861.5" y="730" transform="rotate(0 861.5 730)" style="text-anchor:end;" fill="black">i</text><text x="861.5" y="745" transform="rotate(0 861.5 745)" style="text-anchor:end;" fill="black">v</text><text x="861.5" y="760" transform="rotate(0 861.5 760)" style="text-anchor:end;" fill="black">e</text><rect x="890" y="519" width="50" height="1" fill = "cornflowerblue" style="stroke-width:2;stroke:rgb(0,0,0)"/><text x="920" y="514" transform="rotate(0 920 514)" style="text-anchor:end;" fill="black">1
</text><text x="916.5" y="535" transform="rotate(0 916.5 535)" style="text-anchor:end;" fill="black">W</text><text x="916.5" y="550" transform="rotate(0 916.5 550)" style="text-anchor:end;" fill="black">o</text><text x="916.5" y="565" transform="rotate(0 916.5 565)" style="text-anchor:end;" fill="black">r</text><text x="916.5" y="580" transform="rotate(0 916.5 580)" style="text-anchor:end;" fill="black">d</text><text x="916.5" y="595" transform="rotate(0 916.5 595)" style="text-anchor:end;" fill="black">C</text><text x="916.5" y="610" transform="rotate(0 916.5 610)" style="text-anchor:end;" fill="black">o</text><text x="916.5" y="625" transform="rotate(0 916.5 625)" style="text-anchor:end;" fill="black">u</text><text x="916.5" y="640" transform="rotate(0 916.5 640)" style="text-anchor:end;" fill="black">n</text><text x="916.5" y="655" transform="rotate(0 916.5 655)" style="text-anchor:end;" fill="black">t</text><text x="916.5" y="670" transform="rotate(0 916.5 670)" style="text-anchor:end;" fill="black">e</text><text x="916.5" y="685" transform="rotate(0 916.5 685)" style="text-anchor:end;" fill="black">r</text></svg>